<?xml version="1.0" standalone="no"?>
<!DOCTYPE svg PUBLIC "-//W3C//DTD SVG 20010904//EN"
 "http://www.w3.org/TR/2001/REC-SVG-20010904/DTD/svg10.dtd">
<svg version="1.0" xmlns="http://www.w3.org/2000/svg"
 width="778.000000pt" height="778.000000pt" viewBox="0 0 778.000000 778.000000"
 preserveAspectRatio="xMidYMid meet">
<metadata>
Created by potrace 1.11, written by Peter Selinger 2001-2013
</metadata>
<g transform="translate(0.000000,778.000000) scale(0.100000,-0.100000)"
fill="#000000" stroke="none">
<path d="M3690 7127 c-3 -3 -41 -8 -84 -12 -43 -3 -142 -17 -220 -31 -539 -94
-1032 -325 -1467 -684 -97 -80 -353 -343 -435 -445 -212 -267 -363 -527 -487
-840 -85 -214 -168 -521 -192 -714 -4 -30 -9 -63 -11 -75 -19 -100 -26 -570
-11 -721 67 -647 305 -1230 707 -1728 102 -127 260 -292 369 -387 35 -30 69
-60 75 -66 38 -36 240 -181 343 -246 284 -177 656 -333 943 -394 127 -27 235
-45 345 -59 188 -24 572 -24 715 -1 14 2 48 7 75 10 304 37 659 147 961 299
329 164 581 349 849 621 467 475 763 1059 879 1737 2 15 8 53 11 85 4 33 9 66
10 75 9 50 18 234 19 369 0 273 -19 440 -89 776 -9 40 -67 229 -95 311 -60
171 -159 385 -239 521 -17 29 -31 55 -31 57 0 13 -191 285 -263 375 -78 97
-283 313 -367 385 -493 430 -1060 683 -1720 770 -56 8 -584 18 -590 12z m510
-170 c14 -3 53 -8 87 -11 55 -6 220 -34 293 -51 14 -3 35 -7 48 -9 81 -16 460
-144 427 -145 -5 0 -44 9 -85 20 -66 19 -117 30 -185 43 -263 50 -383 61 -660
61 -180 0 -313 -7 -415 -20 -14 -2 -47 -6 -75 -10 -27 -3 -57 -8 -65 -10 -8
-3 -33 -7 -55 -10 -62 -10 -250 -53 -329 -76 -500 -145 -934 -370 -1326 -684
-118 -95 -133 -108 -234 -204 l-59 -56 64 80 c145 181 376 397 579 542 268
191 617 360 905 438 33 8 67 18 75 20 38 11 257 55 303 60 29 4 54 8 57 10 4
2 51 7 105 11 55 3 102 8 103 9 6 5 414 -3 442 -8z m156 -261 c56 -4 110 -8
121 -10 11 -3 44 -7 74 -10 30 -3 64 -8 75 -10 12 -2 37 -7 55 -10 105 -18
234 -48 349 -82 85 -25 237 -77 275 -94 11 -5 49 -21 85 -36 239 -98 615 -323
713 -428 59 -63 198 -233 253 -311 205 -288 368 -631 460 -969 16 -59 17 -60
-80 87 -226 344 -533 653 -891 898 -349 239 -784 422 -1210 508 -163 33 -196
38 -375 58 -138 16 -667 8 -767 -11 -11 -3 -44 -7 -74 -11 -47 -6 -275 -49
-319 -60 -383 -99 -699 -230 -1012 -421 -87 -53 -272 -180 -300 -206 -7 -7
-49 -42 -93 -78 -92 -75 -84 -68 -205 -184 -113 -109 -218 -229 -317 -361 -42
-55 -78 -102 -80 -105 -3 -3 13 32 35 77 85 168 211 358 354 532 110 133 339
357 481 470 116 92 404 291 422 291 4 0 19 8 33 19 28 19 248 132 336 171 234
105 561 204 811 246 11 2 34 6 50 8 74 13 188 25 280 32 55 3 101 7 102 8 5 4
268 -2 359 -8z m-146 -570 c122 -12 251 -30 340 -47 142 -28 542 -279 765
-481 365 -330 597 -663 810 -1163 90 -210 174 -554 208 -855 15 -129 19 -493
6 -615 -16 -158 -20 -191 -29 -240 -5 -27 -12 -65 -15 -83 -41 -247 -152 -582
-279 -842 -25 -52 -46 -99 -46 -105 0 -16 -129 -129 -267 -234 -86 -65 -166
-99 -403 -174 -296 -94 -499 -126 -765 -121 -253 5 -233 3 -214 14 22 13 143
41 194 46 37 3 68 7 155 20 203 29 455 98 665 182 205 82 532 262 518 285 -3
7 -24 38 -45 69 l-39 58 -78 -50 c-112 -70 -359 -193 -431 -215 -14 -4 16 20
65 53 211 143 462 370 612 553 70 86 72 70 -18 142 l-46 37 -59 -72 c-82 -103
-250 -268 -374 -369 -97 -79 -275 -207 -310 -222 -8 -4 -33 -19 -55 -33 -142
-90 -556 -266 -659 -281 -59 -8 -336 -8 -441 1 -121 10 -281 33 -390 58 -49
11 -101 22 -115 24 -25 5 -114 32 -210 64 -585 194 -1087 570 -1435 1073 -37
54 -70 97 -74 95 -4 -2 -35 -21 -68 -42 l-61 -40 27 -40 c438 -676 1140 -1145
1961 -1310 26 -5 -282 3 -335 9 -578 64 -1121 295 -1539 654 -100 85 -262 253
-316 326 -69 94 -185 311 -244 455 -15 36 -31 74 -36 85 -64 142 -165 539
-185 727 -3 29 -8 87 -12 128 -10 96 -10 441 -1 543 7 69 15 93 69 200 100
197 218 378 363 557 84 104 285 309 381 388 44 37 82 69 85 72 13 15 136 104
230 167 163 109 282 175 450 252 63 29 124 56 135 62 112 52 455 152 630 185
50 9 99 18 110 20 11 2 44 7 74 10 30 3 63 7 73 9 11 2 61 7 111 11 51 3 93 7
95 9 5 4 399 -3 462 -9z m1159 -318 c311 -151 622 -374 865 -623 74 -75 241
-270 279 -325 172 -248 277 -432 363 -636 l45 -109 2 -150 c1 -139 -10 -391
-17 -404 -2 -3 -7 -33 -11 -66 -18 -162 -89 -455 -154 -630 -84 -228 -202
-460 -334 -657 -50 -75 -92 -136 -94 -135 -1 2 14 52 33 112 78 245 130 496
150 725 3 36 7 83 9 105 5 48 6 393 1 450 -2 22 -7 72 -11 112 -68 691 -342
1339 -780 1848 -91 106 -282 293 -373 366 -40 32 -70 59 -66 59 4 0 45 -19 93
-42z m-2994 -4466 c174 -76 490 -171 655 -197 25 -4 54 -9 65 -11 200 -34 427
-45 695 -34 57 3 100 -3 180 -24 58 -15 112 -29 120 -31 40 -7 89 -15 124 -21
21 -3 48 -7 59 -10 83 -16 352 -22 482 -11 l70 6 -45 -14 c-94 -31 -282 -75
-385 -90 -23 -3 -52 -7 -65 -10 -157 -30 -639 -27 -830 5 -30 5 -71 12 -90 15
-214 34 -505 125 -715 223 -153 71 -435 233 -435 249 0 6 -5 8 115 -45z"/>
</g>
</svg>
