<svg xmlns="http://www.w3.org/2000/svg" viewBox="0 0 25 24.927">
  <defs>
    <style>
      .cls-1 {
        fill: #ce93d8;
      }

      .cls-2 {
        fill: #f5f5f5;
      }
    </style>
  </defs>
  <g id="subtask3" transform="translate(-241.797 -500)">
    <path id="subtask3-2" data-name="subtask3" class="cls-1" d="M.5,25.427A24.962,24.962,0,0,1,25.405.5H25.5V25.427Z" transform="translate(241.297 499.5)"/>
    <g id="Group_171" data-name="Group 171">
      <g id="Group_110_1_" transform="translate(252.127 506.906)">
        <path id="Path_9_1_" class="cls-2" d="M4.1,3.219a.538.538,0,0,0,.56-.56A.6.6,0,0,0,4.1,2.1H.56A.538.538,0,0,0,0,2.66H0V13.524a.6.6,0,0,0,.56.56H4.1c.373,0,.56-.28.56-.653a.5.5,0,0,0-.56-.56H1.119V8.152H4.1a.538.538,0,0,0,.56-.56.6.6,0,0,0-.56-.56H1.119V3.219Z" transform="translate(0 -0.084)"/>
        <path id="Path_10_1_" class="cls-2" d="M11.614,7.687a.485.485,0,0,0-.746,0h0L9.189,9.18l-.653-.56a.437.437,0,0,0-.746,0,.7.7,0,0,0,0,.839l1.026,1.026a.485.485,0,0,0,.746,0h0l1.959-1.959a.6.6,0,0,0,.093-.839Z" transform="translate(-0.514 -1.578)"/>
        <path id="Path_10_1_2" data-name="Path_10_1_" class="cls-2" d="M11.614,7.687a.485.485,0,0,0-.746,0h0L9.189,9.18l-.653-.56a.437.437,0,0,0-.746,0,.7.7,0,0,0,0,.839l1.026,1.026a.485.485,0,0,0,.746,0h0l1.959-1.959a.6.6,0,0,0,.093-.839Z" transform="translate(-0.514 3.422)"/>
        <path id="Path_11_1_" class="cls-2" d="M11.614.187a.485.485,0,0,0-.746,0h0L9.189,1.773l-.56-.653a.7.7,0,0,0-.839,0,.7.7,0,0,0,0,.839h0L8.816,2.986a.485.485,0,0,0,.746,0h0l1.959-1.959A.6.6,0,0,0,11.614.187Z" transform="translate(-0.514 0.989)"/>
      </g>
      <g id="Group_114_1_" transform="translate(249.534 513.786)">
        <path id="Path_15_1_" class="cls-2" d="M3.668,0H1.56A.6.6,0,0,0,1,.56a.6.6,0,0,0,.56.56H3.668a.6.6,0,0,0,.56-.56A.6.6,0,0,0,3.668,0Z" transform="translate(-1)"/>
      </g>
    </g>
  </g>
</svg>
