<svg xmlns="http://www.w3.org/2000/svg" viewBox="0 0 35 35">
  <defs>
    <style>
      .cls-1 {
        fill: #dcdcdc;
      }

      .cls-2 {
        fill: #ff6750;
        stroke: #ff6750;
      }

      .cls-3 {
        fill: #393c3e;
      }
    </style>
  </defs>
  <g id="Task-2" transform="translate(-261 -399)">
    <g id="Group_147" data-name="Group 147" transform="translate(-2853 -3013)">
      <circle id="Ellipse_1" data-name="Ellipse 1" class="cls-1" cx="17.5" cy="17.5" r="17.5" transform="translate(3114 3412)"/>
      <g id="Group_141" data-name="Group 141" transform="translate(-148 -6)">
        <g id="Group_140" data-name="Group 140">
          <g id="Group_124" data-name="Group 124" transform="translate(3278.69 3435.873)">
            <g id="Group_122" data-name="Group 122" transform="translate(0 0)">
              <path id="Path_30" data-name="Path 30" class="cls-2" d="M15.719,23.739a5.519,5.519,0,1,1,5.519-5.519A5.519,5.519,0,0,1,15.719,23.739Z" transform="translate(-10.2 -12.7)"/>
            </g>
          </g>
        </g>
        <g id="Group_139" data-name="Group 139">
          <g id="Group_115_1_" transform="translate(3272.807 3425.585)">
            <path id="Path_15_2_" class="cls-3" d="M9.659,0H.527A.567.567,0,0,0,0,.527a.567.567,0,0,0,.527.527H9.659a.567.567,0,0,0,.527-.527A.567.567,0,0,0,9.659,0Z"/>
            <path id="Path_26_1_" class="cls-3" d="M9.659,3.8H.527A.567.567,0,0,0,0,4.327a.567.567,0,0,0,.527.527H9.659a.567.567,0,0,0,.527-.527A.567.567,0,0,0,9.659,3.8Z" transform="translate(0 -0.463)"/>
            <path id="Path_27_1_" class="cls-3" d="M9.659,7.6H.527A.587.587,0,0,0,0,8.215a.567.567,0,0,0,.527.527H9.659a.567.567,0,0,0,.527-.527A.587.587,0,0,0,9.659,7.6Z" transform="translate(0 -0.926)"/>
            <path id="Path_17_1_" class="cls-3" d="M4.917,11.8H.527A.506.506,0,0,0,0,12.327a.567.567,0,0,0,.527.527H4.917a.567.567,0,0,0,.527-.527C5.532,11.976,5.269,11.8,4.917,11.8Z" transform="translate(0 -1.438)"/>
          </g>
          <path id="Path_22_1_" class="cls-3" d="M300.729,334.5a1.229,1.229,0,1,0,1.229,1.229,1.2,1.2,0,0,0-1.229-1.229Zm0,1.668a.439.439,0,1,1,.439-.439c-.088.263-.263.439-.439.439Z" transform="translate(2969.5 3090.5)"/>
          <path id="Path_23_1_" class="cls-3" d="M300.729,338.3a1.229,1.229,0,1,0,1.229,1.229,1.256,1.256,0,0,0-1.229-1.229Zm0,1.668a.439.439,0,1,1,.439-.439c-.088.263-.263.439-.439.439Z" transform="translate(2969.5 3090.037)"/>
          <path id="Path_24_1_" class="cls-3" d="M300.729,342.2a1.229,1.229,0,1,0,1.229,1.229,1.2,1.2,0,0,0-1.229-1.229Zm0,1.581a.439.439,0,1,1,.439-.439c-.088.263-.263.439-.439.439Z" transform="translate(2969.5 3089.561)"/>
          <path id="Path_25_1_" class="cls-3" d="M300.729,346a1.229,1.229,0,1,0,1.229,1.229A1.2,1.2,0,0,0,300.729,346Zm0,1.668a.439.439,0,1,1,.439-.439c-.088.263-.263.439-.439.439Z" transform="translate(2969.5 3089.098)"/>
        </g>
      </g>
    </g>
  </g>
</svg>
