<svg xmlns="http://www.w3.org/2000/svg" viewBox="0 0 25 25">
  <defs>
    <style>
      .cls-1 {
        fill: #ce93d8;
      }

      .cls-2 {
        fill: #fff;
      }
    </style>
  </defs>
  <g id="task3" transform="translate(-258 -242)">
    <rect id="Rectangle_27" data-name="Rectangle 27" class="cls-1" width="25" height="25" transform="translate(258 242)"/>
    <g id="Group_153" data-name="Group 153" transform="translate(264 248)">
      <g id="Group_139" data-name="Group 139" transform="translate(0 0)">
        <g id="Group_115_1_" transform="translate(3.809 0.585)">
          <path id="Path_15_2_" class="cls-2" d="M9.664,0H.527A.567.567,0,0,0,0,.527a.567.567,0,0,0,.527.527H9.664a.567.567,0,0,0,.527-.527A.567.567,0,0,0,9.664,0Z"/>
          <path id="Path_26_1_" class="cls-2" d="M9.664,3.8H.527A.567.567,0,0,0,0,4.327a.567.567,0,0,0,.527.527H9.664a.567.567,0,0,0,.527-.527A.567.567,0,0,0,9.664,3.8Z" transform="translate(0 -0.462)"/>
          <path id="Path_27_1_" class="cls-2" d="M9.664,7.6H.527A.587.587,0,0,0,0,8.215a.567.567,0,0,0,.527.527H9.664a.567.567,0,0,0,.527-.527A.587.587,0,0,0,9.664,7.6Z" transform="translate(0 -0.923)"/>
          <path id="Path_17_1_" class="cls-2" d="M4.92,11.8H.527A.506.506,0,0,0,0,12.327a.567.567,0,0,0,.527.527H4.92a.567.567,0,0,0,.527-.527C5.535,11.976,5.271,11.8,4.92,11.8Z" transform="translate(0 -1.434)"/>
        </g>
        <path id="Path_22_1_" class="cls-2" d="M300.73,334.5a1.23,1.23,0,1,0,1.23,1.23,1.2,1.2,0,0,0-1.23-1.23Zm0,1.669a.439.439,0,1,1,.439-.439c-.088.264-.264.439-.439.439Z" transform="translate(-299.5 -334.5)"/>
        <path id="Path_23_1_" class="cls-2" d="M300.73,338.3a1.23,1.23,0,1,0,1.23,1.23,1.256,1.256,0,0,0-1.23-1.23Zm0,1.669a.439.439,0,1,1,.439-.439c-.088.264-.264.439-.439.439Z" transform="translate(-299.5 -334.962)"/>
        <path id="Path_24_1_" class="cls-2" d="M300.73,342.2a1.23,1.23,0,1,0,1.23,1.23,1.2,1.2,0,0,0-1.23-1.23Zm0,1.581a.439.439,0,1,1,.439-.439c-.088.264-.264.439-.439.439Z" transform="translate(-299.5 -335.436)"/>
        <path id="Path_25_1_" class="cls-2" d="M300.73,346a1.23,1.23,0,1,0,1.23,1.23,1.2,1.2,0,0,0-1.23-1.23Zm0,1.669a.439.439,0,1,1,.439-.439c-.088.264-.264.439-.439.439Z" transform="translate(-299.5 -335.897)"/>
      </g>
    </g>
  </g>
</svg>
